<svg id="Layer_1" data-name="Layer 1" xmlns="http://www.w3.org/2000/svg" viewBox="0 0 459.94 676.34"><defs><style>.cls-1,.cls-6{fill:#e6e6e5;}.cls-1,.cls-3,.cls-4,.cls-6{stroke:#010101;}.cls-1,.cls-3,.cls-4{stroke-miterlimit:10;}.cls-1,.cls-3{stroke-width:2px;}.cls-2,.cls-5{isolation:isolate;}.cls-2,.cls-7{font-size:15.55px;font-family:ArialMT, Arial;}.cls-2,.cls-3,.cls-7{fill:#010101;}.cls-4{fill:none;stroke-width:4px;}.cls-6{stroke-miterlimit:10;stroke-width:2px;}</style></defs><rect class="cls-1" x="48.16" y="1" width="125.71" height="50.54" rx="15.55"/><text class="cls-2" transform="translate(81.62 30.42)">Input file</text><polygon class="cls-3" points="111.01 80.44 118.49 72.48 103.53 72.48 111.01 80.44"/><line class="cls-4" x1="111.01" y1="58.41" x2="111.01" y2="76.55"/><polygon class="cls-1" points="200.37 155.82 6.48 155.82 21.65 89.72 215.55 89.72 200.37 155.82"/><g class="cls-5"><text class="cls-2" transform="translate(31.29 110.3)">Select data start point<tspan x="6.06" y="18.66">Select threshold for </tspan><tspan x="-18.15" y="37.32">dist.correlation and p-value</tspan></text></g><polygon class="cls-3" points="111.01 186.37 118.49 178.42 103.53 178.42 111.01 186.37"/><line class="cls-4" x1="111.01" y1="164.34" x2="111.01" y2="182.49"/><rect class="cls-6" x="155.83" y="300.4" width="96.23" height="97.17" transform="translate(-279.97 191.79) rotate(-45)"/><text class="cls-2" transform="translate(76.03 287.65)">one-to-all<tspan x="-7.78" y="18.66">comparison</tspan></text><polygon class="cls-3" points="211.25 294.08 203.28 286.61 203.28 301.56 211.25 294.08"/><line class="cls-4" x1="189.22" y1="294.08" x2="207.37" y2="294.08"/><text class="cls-2" transform="translate(124.62 376.35)">no</text><polygon class="cls-3" points="111.12 392.6 118.59 384.63 103.64 384.63 111.12 392.6"/><line class="cls-4" x1="111.01" y1="365.33" x2="111.01" y2="383.47"/><text class="cls-2" transform="translate(183.43 277.45)">yes</text><rect class="cls-1" x="48.15" y="624.79" width="125.71" height="50.54" rx="15.55"/><text class="cls-2" transform="translate(75.14 654.22)">Output file</text><rect class="cls-1" x="1" y="474.28" width="222.23" height="41.46"/><g class="cls-5"><text class="cls-2" transform="translate(17.06 490.57)">sign(Pearson correlation) x <tspan x="6.9" y="18.66">distance correlation value</tspan></text></g><line class="cls-4" x1="112.27" y1="588.99" x2="112.27" y2="607.13"/><polygon class="cls-3" points="112.12 616.84 119.6 608.89 104.63 608.89 112.12 616.84"/><line class="cls-4" x1="350.13" y1="449.41" x2="350.13" y2="467.55"/><polygon class="cls-3" points="349.98 477.27 357.46 469.31 342.49 469.31 349.98 477.27"/><rect class="cls-1" x="236.7" y="259.66" width="222.23" height="67.65"/><g class="cls-5"><text class="cls-2" transform="translate(245.64 282.92)">Calculate distance correlation<tspan x="71.32" y="18.66">ni to U nj</tspan></text></g><rect class="cls-1" x="1" y="190.51" width="222.23" height="30.42"/><g class="cls-5"><text class="cls-2" transform="translate(35.2 213.81)">z-score normalize data</text></g><rect class="cls-1" x="1.16" y="397.41" width="222.23" height="67.07"/><g class="cls-5"><text class="cls-2" transform="translate(8.11 418.67)">Calculate distance correlation<tspan x="76.94" y="18.66" xml:space="preserve">ni  to nj</tspan></text></g><rect class="cls-1" x="287.28" y="484.83" width="125.71" height="50.54" rx="15.55"/><text class="cls-2" transform="translate(314.26 514.25)">Output file</text><rect class="cls-1" x="6.71" y="521.14" width="211.87" height="62.44"/><g class="cls-5"><text class="cls-2" transform="translate(15.03 538.13)">Set values to zero for p over<tspan x="21.6" y="18.66">and correlation under </tspan><tspan x="29.39" y="37.33">user set thresholds </tspan></text></g><rect class="cls-1" x="236.7" y="334.7" width="222.23" height="41.46"/><text class="cls-7" transform="translate(252.74 351.12)">sign(Pearson correlation) x <tspan x="6.9" y="18.66">distance correlation value</tspan></text><rect class="cls-1" x="242.41" y="381.56" width="211.87" height="62.44"/><g class="cls-5"><text class="cls-2" transform="translate(250.73 398.55)">Set values to zero for p over<tspan x="21.6" y="18.66">and correlation under </tspan><tspan x="29.39" y="37.33">user set thresholds </tspan></text></g><text class="cls-7" transform="translate(59.52 454.81)">Calculate p-value</text><text class="cls-7" transform="translate(282.41 318.99)">Calculate p-value</text></svg>