<?xml version="1.0" encoding="utf-8"?>
<!-- Generator: Adobe Illustrator 26.0.2, SVG Export Plug-In . SVG Version: 6.00 Build 0)  -->
<svg version="1.1" id="Layer_1" xmlns="http://www.w3.org/2000/svg" xmlns:xlink="http://www.w3.org/1999/xlink" x="0px" y="0px"
	 viewBox="0 0 612 792" style="enable-background:new 0 0 612 792;" xml:space="preserve">
<style type="text/css">
	.st0{fill:#FFFFFF;stroke:#000000;stroke-miterlimit:10;}
	.st1{fill:none;stroke:#000000;stroke-miterlimit:10;}
	.st2{fill:none;stroke:#6D6E71;stroke-miterlimit:10;}
	.st3{font-family:'MyriadPro-Regular';}
	.st4{font-size:12px;}
	.st5{fill:none;stroke:#BCBEC0;stroke-width:0.25;stroke-miterlimit:10;}
	.st6{fill:none;stroke:#E6E7E8;stroke-width:0.25;stroke-miterlimit:10;}
	.st7{fill:#6D6E71;stroke:#000000;stroke-miterlimit:10;}
</style>
<g>
	<rect x="122.64" y="119.02" class="st0" width="263.61" height="128.17"/>
	<circle class="st1" cx="190.6" cy="210.96" r="9.5"/>
	<circle class="st1" cx="223.12" cy="152.96" r="9.5"/>
	<circle class="st1" cx="276.6" cy="133.96" r="9.5"/>
	<circle class="st1" cx="328.03" cy="143.46" r="9.5"/>
	<circle class="st1" cx="347.03" cy="189.96" r="9.5"/>
	<line class="st2" x1="199.81" y1="208.66" x2="263.67" y2="178.46"/>
	<line class="st2" x1="273.41" y1="162.46" x2="275.6" y2="143.86"/>
	<line class="st2" x1="280.04" y1="169.19" x2="321.15" y2="149.99"/>
	<line class="st2" x1="280.72" y1="176.06" x2="337.86" y2="187.51"/>
	<text transform="matrix(1 0 0 1 376.7733 244.16)" class="st3 st4">X</text>
	<text transform="matrix(1 0 0 1 125.6742 131.6969)" class="st3 st4">Y</text>
	<g>
		<line class="st5" x1="123.78" y1="151.96" x2="213.62" y2="151.96"/>
		<line x1="123.78" y1="151.96" x2="213.62" y2="151.96"/>
	</g>
	<g>
		<line class="st6" x1="122.64" y1="211" x2="180.09" y2="211"/>
		<line x1="122.64" y1="211" x2="180.09" y2="211"/>
	</g>
	<g>
		<line class="st6" x1="121.76" y1="133.96" x2="267.1" y2="133.96"/>
		<line x1="121.76" y1="133.96" x2="267.1" y2="133.96"/>
	</g>
	<g>
		<line class="st5" x1="121.76" y1="141.46" x2="318.53" y2="141.46"/>
		<line x1="121.76" y1="141.46" x2="318.53" y2="141.46"/>
	</g>
	<g>
		<line class="st5" x1="190.6" y1="220.46" x2="190.6" y2="247.19"/>
		<line x1="190.6" y1="220.46" x2="190.6" y2="247.19"/>
	</g>
	<g>
		<line class="st6" x1="223.12" y1="162.46" x2="223.12" y2="247.19"/>
		<line x1="223.12" y1="162.46" x2="223.12" y2="247.19"/>
	</g>
	<g>
		<line class="st5" x1="275.6" y1="143.86" x2="275.6" y2="247.19"/>
		<line x1="275.6" y1="143.86" x2="275.6" y2="247.19"/>
	</g>
	<g>
		<line class="st6" x1="328.03" y1="152.49" x2="328.03" y2="247.19"/>
		<line x1="328.03" y1="152.49" x2="328.03" y2="247.19"/>
	</g>
	<g>
		<line class="st6" x1="347.03" y1="199.46" x2="347.03" y2="247.19"/>
		<line x1="347.03" y1="199.46" x2="347.03" y2="247.19"/>
	</g>
	<g>
		<line class="st5" x1="122.64" y1="189.96" x2="337.53" y2="189.96"/>
		<line x1="122.64" y1="189.96" x2="337.53" y2="189.96"/>
	</g>
	<circle class="st7" cx="271.22" cy="172.71" r="9.5"/>
	<line class="st2" x1="231.74" y1="156.94" x2="261.72" y2="169.94"/>
</g>
</svg>
